<svg width="11" height="11" viewBox="0 0 11 11" fill="none" xmlns="http://www.w3.org/2000/svg">
<path d="M10.875 10.3447L8.043 7.51273C8.72354 6.69572 9.06291 5.6478 8.9905 4.58695C8.91808 3.5261 8.43947 2.534 7.65421 1.81705C6.86896 1.1001 5.83753 0.713485 4.77448 0.73764C3.71144 0.761794 2.69863 1.19486 1.94675 1.94674C1.19487 2.69861 0.761809 3.71142 0.737655 4.77447C0.7135 5.83751 1.10011 6.86894 1.81707 7.6542C2.53402 8.43945 3.52611 8.91807 4.58696 8.99048C5.64781 9.06289 6.69574 8.72353 7.51275 8.04298L10.3447 10.875L10.875 10.3447ZM1.5 4.87498C1.5 4.20747 1.69794 3.55495 2.06879 2.99993C2.43964 2.44492 2.96674 2.01233 3.58344 1.75689C4.20014 1.50144 4.87874 1.43461 5.53343 1.56483C6.18811 1.69506 6.78948 2.01649 7.26148 2.4885C7.73349 2.9605 8.05492 3.56187 8.18515 4.21655C8.31537 4.87124 8.24854 5.54984 7.99309 6.16654C7.73765 6.78324 7.30506 7.31034 6.75005 7.68119C6.19503 8.05204 5.54251 8.24998 4.875 8.24998C3.9802 8.24899 3.12233 7.89309 2.48961 7.26037C1.85689 6.62765 1.50099 5.76978 1.5 4.87498Z" fill="white"/>
</svg>
