<svg width="21" height="20" viewBox="0 0 21 20" fill="none" xmlns="http://www.w3.org/2000/svg">
<path d="M2.24852 0.376862L20.3085 9.01429C20.4911 9.10145 20.6452 9.23851 20.7531 9.40961C20.861 9.58071 20.9183 9.77886 20.9183 9.98115C20.9183 10.1834 20.861 10.3816 20.7531 10.5527C20.6452 10.7238 20.4911 10.8608 20.3085 10.948L2.24852 19.5854C2.06338 19.6741 1.85667 19.7077 1.65296 19.6823C1.44926 19.6569 1.25716 19.5735 1.0995 19.442C0.941839 19.3105 0.825269 19.1365 0.763656 18.9407C0.702043 18.7449 0.697981 18.5355 0.751953 18.3374L2.55881 11.7134C2.58093 11.6323 2.62645 11.5594 2.68971 11.5039C2.75296 11.4484 2.83115 11.4128 2.91452 11.4014L11.666 10.2126C11.7025 10.2074 11.7371 10.1928 11.7664 10.1703C11.7957 10.1477 11.8187 10.118 11.8331 10.084L11.8485 10.0309C11.8553 9.98301 11.8457 9.93427 11.8212 9.89257C11.7968 9.85087 11.759 9.81865 11.714 9.80115L11.6668 9.78829L2.92395 8.59943C2.84074 8.58793 2.76273 8.55223 2.69964 8.49675C2.63655 8.44128 2.59116 8.36849 2.5691 8.28743L0.751953 1.62572C0.697762 1.4276 0.701659 1.21808 0.763179 1.02212C0.824699 0.826154 0.94125 0.652002 1.09895 0.520405C1.25665 0.388808 1.44885 0.305313 1.65266 0.279863C1.85648 0.254414 2.06331 0.288084 2.24852 0.376862V0.376862Z" fill="#E5E5E5"/>
</svg>
