<svg width="16" height="16" viewBox="0 0 16 16" fill="none" xmlns="http://www.w3.org/2000/svg">
<path d="M15.3125 14.5171L11.0645 10.2691C12.0853 9.04359 12.5944 7.47169 12.4858 5.88042C12.3771 4.28914 11.6592 2.80101 10.4813 1.72558C9.30345 0.650147 7.7563 0.0702278 6.16173 0.106459C4.56716 0.142691 3.04795 0.792283 1.92013 1.9201C0.792314 3.04792 0.142721 4.56713 0.10649 6.1617C0.0702584 7.75627 0.650177 9.30342 1.72561 10.4813C2.80104 11.6592 4.28918 12.3771 5.88045 12.4857C7.47172 12.5943 9.04362 12.0853 10.2691 11.0645L14.5171 15.3125L15.3125 14.5171ZM1.25 6.31247C1.25 5.31121 1.54691 4.33242 2.10319 3.4999C2.65946 2.66738 3.45012 2.0185 4.37517 1.63533C5.30022 1.25216 6.31812 1.15191 7.30015 1.34725C8.28218 1.54259 9.18423 2.02474 9.89223 2.73275C10.6002 3.44075 11.0824 4.3428 11.2777 5.32483C11.4731 6.30686 11.3728 7.32476 10.9896 8.24981C10.6065 9.17486 9.9576 9.96551 9.12508 10.5218C8.29255 11.0781 7.31377 11.375 6.3125 11.375C4.9703 11.3735 3.6835 10.8396 2.73442 9.89056C1.78534 8.94148 1.25149 7.65468 1.25 6.31247Z" fill="white"/>
</svg>
